<?xml version="1.0" encoding="UTF-8" standalone="no"?>
<!-- Created with Inkscape (http://www.inkscape.org/) -->

<svg
   width="5.1978292mm"
   height="5.1978297mm"
   viewBox="0 0 5.1978292 5.1978297"
   version="1.1"
   id="svg1"
   xml:space="preserve"
   xmlns="http://www.w3.org/2000/svg"
   xmlns:svg="http://www.w3.org/2000/svg"><defs
     id="defs1" /><g
     id="layer1"
     transform="translate(-37.429831,-37.026873)"><circle
       style="fill:#415570;fill-opacity:1;stroke-width:0.264583"
       id="path1"
       cx="40.028748"
       cy="39.62579"
       r="2.5989134" /><circle
       style="fill:#071223;fill-opacity:1;stroke-width:0.2557"
       id="path1-5"
       cx="40.028748"
       cy="39.62579"
       r="2.5116632" /><path
       style="font-family:'Segoe UI';-inkscape-font-specification:'Segoe UI';letter-spacing:-0.235204px;white-space:pre;fill:#bdd8ff"
       d="m 161.27539,141.5339 h -1.08984 l -0.89063,-2.35547 h -3.5625 l -0.83789,2.35547 h -1.0957 l 3.22265,-8.40234 h 1.01954 z m -2.30273,-3.24023 -1.31836,-3.58008 q -0.0645,-0.17578 -0.12891,-0.5625 h -0.0234 q -0.0586,0.35742 -0.13476,0.5625 l -1.30664,3.58008 z m 2.91128,2.90039 v -1.16016 q 0.19922,0.17578 0.47461,0.31641 0.28125,0.14062 0.58593,0.24023 0.31055,0.0937 0.6211,0.14649 0.31054,0.0527 0.57422,0.0527 0.9082,0 1.35351,-0.33398 0.45117,-0.33985 0.45117,-0.97266 0,-0.33984 -0.15234,-0.5918 -0.14648,-0.25195 -0.41016,-0.45703 -0.26367,-0.21094 -0.62695,-0.39844 -0.35742,-0.19335 -0.77344,-0.40429 -0.43945,-0.22266 -0.82031,-0.45117 -0.38086,-0.22852 -0.66211,-0.50391 -0.28125,-0.27539 -0.44531,-0.62109 -0.1582,-0.35157 -0.1582,-0.82032 0,-0.57422 0.25195,-0.99609 0.25195,-0.42773 0.66211,-0.70313 0.41015,-0.27539 0.93164,-0.41015 0.52734,-0.13477 1.07226,-0.13477 1.24219,0 1.81055,0.29883 v 1.10742 q -0.74414,-0.51562 -1.91016,-0.51562 -0.32226,0 -0.64453,0.0703 -0.32226,0.0644 -0.57422,0.2168 -0.25195,0.15234 -0.41015,0.39258 -0.1582,0.24023 -0.1582,0.58593 0,0.32227 0.11718,0.55664 0.12305,0.23438 0.35742,0.42774 0.23438,0.19336 0.56836,0.375 0.33985,0.18164 0.7793,0.39844 0.45117,0.22265 0.85547,0.46875 0.4043,0.24609 0.70898,0.54492 0.30469,0.29883 0.48047,0.66211 0.18164,0.36328 0.18164,0.83203 0,0.62109 -0.24609,1.05469 -0.24023,0.42773 -0.65625,0.69726 -0.41016,0.26953 -0.94922,0.38672 -0.53906,0.12305 -1.13672,0.12305 -0.19922,0 -0.49219,-0.0352 -0.29296,-0.0293 -0.59765,-0.0937 -0.30469,-0.0586 -0.58008,-0.14648 -0.26953,-0.0937 -0.43359,-0.20508 z"
       id="text1"
       transform="matrix(0.20248376,0,0,0.20248376,7.5291164,11.818144)"
       aria-label="AS" /></g></svg>
